<svg id="shopping_and_biz" data-name="shopping and biz" xmlns="http://www.w3.org/2000/svg" viewBox="0 0 64 64"><defs><style>.cls-1{fill:rgb(38, 115, 194);}</style></defs><title>discount</title><path class="cls-1" d="M35.61,34.6a7,7,0,1,0,9.9,0A7,7,0,0,0,35.61,34.6Zm7.07,7.07a3,3,0,1,1,0-4.24A3,3,0,0,1,42.68,41.68Z"/><path class="cls-1" d="M29.95,28.95a7,7,0,1,0-9.9,0A7,7,0,0,0,29.95,28.95Zm-7.07-7.07a3,3,0,1,1,0,4.24A3,3,0,0,1,22.88,21.88Z"/><path class="cls-1" d="M43.69,20.86a2,2,0,0,0-2.83,0l-19,19a2,2,0,1,0,2.83,2.83l19-19A2,2,0,0,0,43.69,20.86Z"/><path class="cls-1" d="M60,32l3.64-5.58a2,2,0,0,0-.64-2.8l-5.79-3.5.8-6.57a2,2,0,0,0-1.78-2.23l-6.81-.71L47.24,4.31a2,2,0,0,0-2.54-1.22L38.22,5.33,33.4.58a2,2,0,0,0-2.81,0L25.77,5.33,19.3,3.08a2,2,0,0,0-2.54,1.22L14.55,10.6l-6.81.71A2,2,0,0,0,6,13.54l.8,6.57L1,23.61a2,2,0,0,0-.64,2.8L4,32,.32,37.58A2,2,0,0,0,1,40.39l5.79,3.5L6,50.46a2,2,0,0,0,1.78,2.23l6.81.71,2.21,6.29a2,2,0,0,0,2.54,1.23l6.47-2.25,4.82,4.75a2,2,0,0,0,2.81,0l4.82-4.75,6.47,2.25a2,2,0,0,0,2.54-1.23l2.21-6.29,6.81-.71A2,2,0,0,0,58,50.46l-.8-6.57L63,40.39a2,2,0,0,0,.64-2.8ZM56,33.09,59.19,38l-5.12,3.1a2,2,0,0,0-1,2l.71,5.84-6,.63a2,2,0,0,0-1.68,1.33l-2,5.6-5.76-2a2,2,0,0,0-2.06.46L32,59.19l-4.3-4.24a2,2,0,0,0-2.06-.46l-5.76,2-2-5.6a2,2,0,0,0-1.68-1.33l-6-.63.71-5.84a2,2,0,0,0-1-2L4.81,38,8,33.09a2,2,0,0,0,0-2.19L4.81,26l5.12-3.1a2,2,0,0,0,1-2l-.71-5.84,6-.63a2,2,0,0,0,1.68-1.32l2-5.61,5.76,2a2,2,0,0,0,2.06-.47L32,4.81l4.3,4.24a2,2,0,0,0,2.06.47l5.76-2,2,5.61a2,2,0,0,0,1.68,1.32l6,.63-.71,5.84a2,2,0,0,0,1,2L59.19,26,56,30.91A2,2,0,0,0,56,33.09Z"/></svg>