<svg xmlns="http://www.w3.org/2000/svg" viewBox="0 0 58 64">
  <defs>
    <style>
      .cls-1 {
        fill: rgb(38, 115, 194);
      }
    </style>
  </defs>
  <title>quit</title>
  <g>
    <path class="cls-1" d="M36,42a2,2,0,0,0-2,2V56a4,4,0,0,1-4,4H8a4,4,0,0,1-4-4V8A4,4,0,0,1,8,4H30a4,4,0,0,1,4,4V20a2,2,0,0,0,4,0V8a8,8,0,0,0-8-8H8A8,8,0,0,0,0,8V56a8,8,0,0,0,8,8H30a8,8,0,0,0,8-8h0V44A2,2,0,0,0,36,42Z"/>
    <path class="cls-1" d="M57.56,30.75a2,2,0,0,0-.31-.31h0l-10-8a2,2,0,1,0-2.5,3.12L50.3,30H19a2,2,0,0,0,0,4H50.3l-5.55,4.44a2,2,0,1,0,2.5,3.12l10-8A2,2,0,0,0,57.56,30.75Z"/>
  </g>
</svg>
