<?xml version="1.0" encoding="utf-8"?>
<!-- Generator: Adobe Illustrator 16.0.0, SVG Export Plug-In . SVG Version: 6.00 Build 0)  -->
<!DOCTYPE svg PUBLIC "-//W3C//DTD SVG 1.1//EN" "http://www.w3.org/Graphics/SVG/1.1/DTD/svg11.dtd">
<svg version="1.1" id="Layer_1" xmlns="http://www.w3.org/2000/svg" xmlns:xlink="http://www.w3.org/1999/xlink" x="0px" y="0px"
	 width="378.375px" height="378.374px" viewBox="0 0 378.375 378.374" enable-background="new 0 0 378.375 378.374"
	 xml:space="preserve">
<g>
	<defs>
		<rect id="SVGID_1_" y="-0.001" width="378.375" height="378.375"/>
	</defs>
	<clipPath id="SVGID_2_">
		<use xlink:href="#SVGID_1_"  overflow="visible"/>
	</clipPath>
	<path clip-path="url(#SVGID_2_)" fill-rule="evenodd" clip-rule="evenodd" fill="rgb(210,210,210)" d="M378.375,189.187
		c0,104.484-84.704,189.187-189.188,189.187C84.701,378.374,0,293.671,0,189.187C0,84.7,84.701-0.001,189.188-0.001
		C293.671-0.001,378.375,84.7,378.375,189.187"/>
	<path clip-path="url(#SVGID_2_)" fill-rule="evenodd" clip-rule="evenodd" fill="#FEFEFE" d="M159.541,246.284
		c0-17.705-0.068-35.41,0.063-53.113c0.025-2.984-0.819-3.918-3.804-3.797c-5.517,0.225-11.049-0.023-16.573,0.105
		c-2.237,0.056-3.061-0.564-3.037-2.933c0.112-11.046,0.101-22.099,0.012-33.147c-0.02-2.125,0.62-2.825,2.769-2.777
		c5.648,0.13,11.308-0.158,16.946,0.121c3.268,0.161,3.944-1.001,3.876-4.033c-0.197-8.407-0.197-16.827-0.013-25.235
		c0.225-10.269,2.981-19.857,9.098-28.206c7.74-10.574,18.745-15.408,31.441-15.975c13.039-0.579,26.11-0.258,39.166-0.398
		c1.819-0.021,2.362,0.63,2.354,2.399c-0.058,11.173-0.07,22.35,0.008,33.524c0.019,1.987-0.631,2.595-2.582,2.564
		c-6.278-0.098-12.559-0.05-18.834-0.033c-8.356,0.026-13.358,4.325-13.883,12.597c-0.42,6.632-0.113,13.304-0.267,19.956
		c-0.058,2.369,1.351,2.207,2.92,2.205c9.541-0.015,19.086,0.094,28.627-0.069c2.8-0.049,3.724,0.596,3.404,3.544
		c-1.201,11.102-2.233,22.225-3.185,33.354c-0.217,2.512-1.363,2.99-3.619,2.954c-7.526-0.116-15.062-0.08-22.596-0.032
		c-5.41,0.032-4.884-0.793-4.884,4.725c-0.026,34.654-0.073,69.311,0.076,103.965c0.015,3.66-0.92,4.568-4.541,4.503
		c-12.931-0.237-25.867-0.25-38.798,0.007c-3.643,0.072-4.243-1.164-4.214-4.414C159.611,281.19,159.541,263.739,159.541,246.284"/>
</g>
</svg>
