<svg id="Слой_1" data-name="Слой 1" xmlns="http://www.w3.org/2000/svg" xmlns:xlink="http://www.w3.org/1999/xlink" viewBox="0 0 125.18 71.43"><defs><style>.cls-1{fill:none;}.cls-2{clip-path:url(#clip-path);}.cls-3{fill:#d2d2d2;}</style><clipPath id="clip-path" transform="translate(0 0.01)"><rect class="cls-1" y="-0.01" width="126" height="72"/></clipPath></defs><title>social_vk_grey</title><g class="cls-2"><path class="cls-3" d="M124.52,64.5a8.59,8.59,0,0,0-.43-.82q-3.26-5.86-12.45-14.4l-.13-.13-.07-.06-.07-.07h-.06q-4.17-4-5.28-5.34a5,5,0,0,1-.91-5.28q.78-2,5.87-8.54,2.67-3.45,4.23-5.54,11.28-15,9.78-19.16l-.39-.65a3.8,3.8,0,0,0-2-1.07,10.18,10.18,0,0,0-4.17-.16l-18.77.13a2.43,2.43,0,0,0-1.3,0l-.85.2-.32.16-.26.2a2.83,2.83,0,0,0-.72.68,4.48,4.48,0,0,0-.65,1.14,106.55,106.55,0,0,1-7,14.66q-2.41,4-4.43,7a34,34,0,0,1-3.39,4.37,23.44,23.44,0,0,1-2.48,2.25c-.74.57-1.3.8-1.69.72l-1.11-.26A4.28,4.28,0,0,1,74,33a7.09,7.09,0,0,1-.75-2.54q-.19-1.53-.23-2.64c0-.74,0-1.79,0-3.13s.07-2.26.07-2.74q0-2.48.09-5.38t.16-4.59q.06-1.69.07-3.59a15,15,0,0,0-.23-3,10,10,0,0,0-.68-2.09,3.5,3.5,0,0,0-1.34-1.56A7.49,7.49,0,0,0,69,.85,43.7,43.7,0,0,0,60.23,0Q48.1-.13,44.65,1.57a8.74,8.74,0,0,0-2.48,2Q41,5,41.84,5.09q3.91.59,5.54,2.8l.39.78a12.27,12.27,0,0,1,.91,3,30.1,30.1,0,0,1,.59,4.76,50.27,50.27,0,0,1,0,8.15Q49,28,48.66,29.85a10.57,10.57,0,0,1-.88,3.07A12.38,12.38,0,0,1,47,34.35a1.12,1.12,0,0,1-.32.32,4.84,4.84,0,0,1-1.76.33,4.14,4.14,0,0,1-2.21-.91A15.63,15.63,0,0,1,40,31.58a33.51,33.51,0,0,1-3.16-4.46q-1.76-2.87-3.65-6.78l-1-1.89q-1-1.82-2.67-5.31t-3-6.75A4.33,4.33,0,0,0,24.9,4.3l-.32-.2a4.68,4.68,0,0,0-1-.55A7,7,0,0,0,22,3.13L4.17,3.26Q1.44,3.26.46,4.5l-.26.39a2.13,2.13,0,0,0-.19,1A5.17,5.17,0,0,0,.39,7.69Q4.3,16.88,8.9,25.42t8,13.75q3.39,5.22,6.91,9.84t4.66,5.93c.76.87,1.36,1.52,1.79,2l1.63,1.57a38.27,38.27,0,0,0,4.6,3.75,78.31,78.31,0,0,0,6.71,4.3A36.49,36.49,0,0,0,51.75,70,29.55,29.55,0,0,0,61.27,71h7.5a5.18,5.18,0,0,0,3.45-1.43l.26-.32A4.31,4.31,0,0,0,73,68.08a6.62,6.62,0,0,0,.23-1.79,21.63,21.63,0,0,1,.42-5.05,13.23,13.23,0,0,1,1.11-3.39,8.18,8.18,0,0,1,1.4-1.92A5.54,5.54,0,0,1,77.24,55a4.37,4.37,0,0,1,.52-.23q1.56-.52,3.68,1a21.82,21.82,0,0,1,4,3.78q1.86,2.25,4.46,5.05a31.1,31.1,0,0,0,4.56,4.17l1.3.78A15.76,15.76,0,0,0,99.14,71a7.26,7.26,0,0,0,3.65.33L119.47,71a7.55,7.55,0,0,0,3.84-.82,3.23,3.23,0,0,0,1.63-1.79,5.05,5.05,0,0,0,0-2.22,8.46,8.46,0,0,0-.46-1.73Zm0,0" transform="translate(0 0.01)"/></g></svg>