<?xml version="1.0" encoding="utf-8"?>
<!-- Generator: Adobe Illustrator 16.0.0, SVG Export Plug-In . SVG Version: 6.00 Build 0)  -->
<!DOCTYPE svg PUBLIC "-//W3C//DTD SVG 1.1//EN" "http://www.w3.org/Graphics/SVG/1.1/DTD/svg11.dtd">
<svg version="1.1" id="Layer_1" xmlns="http://www.w3.org/2000/svg" xmlns:xlink="http://www.w3.org/1999/xlink" x="0px" y="0px"
	 width="240px" height="240px" viewBox="0 0 240 240" enable-background="new 0 0 240 240" xml:space="preserve">
<g>
	<defs>
		<path id="SVGID_1_" d="M120,0C53.7,0,0,53.7,0,120s53.7,120,120,120s120-53.7,120-120S186.3,0,120,0z"/>
	</defs>
	<clipPath id="SVGID_2_">
		<use xlink:href="#SVGID_1_"  overflow="visible"/>
	</clipPath>
	
		<linearGradient id="SVGID_3_" gradientUnits="userSpaceOnUse" x1="0" y1="240" x2="1" y2="240" gradientTransform="matrix(-60 139.9997 139.9997 60 -33444.7383 -14362.127)">
		<stop  offset="0" style="stop-color:#37AEE2"/>
		<stop  offset="1" style="stop-color:#1E96C8"/>
	</linearGradient>
	<polygon clip-path="url(#SVGID_2_)" fill="url(#SVGID_3_)" points="326.896,37.242 202.759,326.896 -86.896,202.759 
		37.242,-86.896 	"/>
</g>
<g>
	<defs>
		<rect id="SVGID_4_" width="240" height="240"/>
	</defs>
	<clipPath id="SVGID_5_">
		<use xlink:href="#SVGID_4_"  overflow="visible"/>
	</clipPath>
	<path clip-path="url(#SVGID_5_)" fill="#C8DAEA" d="M98,175c-3.9,0-3.2-1.5-4.6-5.2L82,132.2L152.8,88l8.3,2.2L154.2,109L98,175z"
		/>
	<path clip-path="url(#SVGID_5_)" fill="#A9C9DD" d="M98,175c3,0,4.3-1.4,6-3c2.6-2.5,36-35,36-35l-20.5-5l-19,12L98,174V175z"/>
</g>
<g>
	<defs>
		<path id="SVGID_6_" d="M170.6,72.9L55,117.5c-7.9,3.2-7.8,7.6-1.4,9.5l29.7,9.3L152,93c3.2-2,6.2-0.9,3.8,1.3L100,144.4
			l48.4,35.699c5.5,3,9.5,1.5,10.899-5.1L179,82.2c1.589-6.437-1.306-10.032-5.222-10.032C172.767,72.167,171.688,72.407,170.6,72.9
			"/>
	</defs>
	<clipPath id="SVGID_7_">
		<use xlink:href="#SVGID_6_"  overflow="visible"/>
	</clipPath>
	
		<linearGradient id="SVGID_8_" gradientUnits="userSpaceOnUse" x1="0" y1="239.6836" x2="1" y2="239.6836" gradientTransform="matrix(25 40 40 -25 -9471 6123.7427)">
		<stop  offset="0" style="stop-color:#EFF7FC"/>
		<stop  offset="1" style="stop-color:#FFFFFF"/>
	</linearGradient>
	<polygon clip-path="url(#SVGID_7_)" fill="url(#SVGID_8_)" points="143.092,12.172 230.446,151.939 84.597,243.095 -2.757,103.328 
			"/>
</g>
</svg>
