<svg id="users" xmlns="http://www.w3.org/2000/svg" viewBox="0 0 44 64"><defs><style>.cls-1{fill:rgb(136, 136, 136);}</style></defs><title>warranty3</title><path class="cls-1" d="M22,22A11,11,0,1,0,11,11,11,11,0,0,0,22,22ZM22,4a7,7,0,1,1-7,7A7,7,0,0,1,22,4Z"/><path class="cls-1" d="M22,24A22,22,0,0,0,0,46a2,2,0,0,0,2,2h8V62a2,2,0,0,0,2,2H32a2,2,0,0,0,2-2V48h8a2,2,0,0,0,2-2A22,22,0,0,0,22,24ZM32,44a2,2,0,0,0-2,2V60H14V46a2,2,0,0,0-2-2H4.11A18,18,0,0,1,19.48,28.2L21,32h2l1.52-3.81A18,18,0,0,1,39.89,44Z"/><polygon class="cls-1" points="21 34 19 48 22 50 25 48 23 34 21 34"/></svg>