<svg id="unsorted" xmlns="http://www.w3.org/2000/svg" viewBox="0 0 54 64"><defs><style>.cls-1{fill:rgb(136, 136, 136);}</style></defs><title>warranty2</title><path class="cls-1" d="M52,10C42.38,10,33.6,6.49,28.51.65a2.06,2.06,0,0,0-3,0C20.4,6.49,11.62,10,2,10a2,2,0,0,0-2,2C0,33,9.67,52.34,25.86,63.64a2,2,0,0,0,2.29,0C44.33,52.34,54,33,54,12A2,2,0,0,0,52,10ZM27,59.54C13.06,49.24,4.59,32.4,4,13.93c9.1-.43,17.43-3.72,23-9.06,5.54,5.34,13.87,8.63,23,9.06C49.41,32.4,40.94,49.24,27,59.54Z"/><path class="cls-1" d="M21.41,27.59a2,2,0,0,0-2.83,2.83l6,6A2,2,0,0,0,26,37h.09a2,2,0,0,0,1.45-.72l10-12a2,2,0,0,0-3.07-2.56L25.87,32Z"/></svg>